<?xml version="1.0" standalone="no"?><!DOCTYPE svg PUBLIC "-//W3C//DTD SVG 1.1//EN" "http://www.w3.org/Graphics/SVG/1.1/DTD/svg11.dtd"><svg t="1541558107712" class="icon" style="" viewBox="0 0 1024 1024" version="1.1" xmlns="http://www.w3.org/2000/svg" p-id="7225" xmlns:xlink="http://www.w3.org/1999/xlink" width="200" height="200"><defs><style type="text/css"></style></defs><path d="M511.900228 64.021106C264.735965 64.021106 64.369541 264.387529 64.369541 511.549745c0 247.164263 200.366424 447.530686 447.530686 447.530686 247.162216 0 447.529663-200.366424 447.529663-447.530686C959.429891 264.387529 759.062444 64.021106 511.900228 64.021106zM631.954511 683.836647c-57.550741 40.790008-106.835214 98.107435-112.771413 121.360022-6.932899-23.731494-51.182706-79.472006-113.352651-120.220059-64.11525-42.015929-160.41348-81.302701-159.681816-186.405457 1.321088-191.365422 202.013947-229.837642 272.616958-64.958454 67.358107-158.304446 271.541463-128.025838 272.868691 63.816444C792.365944 602.527806 694.880679 639.234823 631.954511 683.836647z" p-id="7226" fill="#3d3662"></path></svg>