<?xml version="1.0" standalone="no"?><!DOCTYPE svg PUBLIC "-//W3C//DTD SVG 1.1//EN" "http://www.w3.org/Graphics/SVG/1.1/DTD/svg11.dtd"><svg t="1542075013366" class="icon" style="" viewBox="0 0 1024 1024" version="1.1" xmlns="http://www.w3.org/2000/svg" p-id="1935" xmlns:xlink="http://www.w3.org/1999/xlink" width="128" height="128"><defs><style type="text/css"></style></defs><path d="M663.9 440.5L236 91.2c-31.4-25.6-75.8-30.7-113.2-13-33.9 16.1-54.9 48.2-54.9 83.9v700.2c0 35.7 21.1 67.9 55 84 14.8 7 30.7 10.4 46.4 10.4 24.1 0 47.9-8 66.8-23.6l427.9-351c21.8-17.9 34.2-43.7 34.2-70.9 0.1-27.1-12.5-52.9-34.3-70.7zM192.9 807V217.4l360.3 294.1L192.9 807zM891.3 68.3c-35.2 0-64 28.8-64 64v759.1c0 35.2 28.8 64 64 64s64-28.8 64-64v-759c0-35.2-28.8-64.1-64-64.1z" fill="#fbfaf8" p-id="1936"></path></svg>