<?xml version="1.0" standalone="no"?><!DOCTYPE svg PUBLIC "-//W3C//DTD SVG 1.1//EN" "http://www.w3.org/Graphics/SVG/1.1/DTD/svg11.dtd"><svg t="1541667134343" class="icon" style="" viewBox="0 0 1024 1024" version="1.1" xmlns="http://www.w3.org/2000/svg" p-id="19214" xmlns:xlink="http://www.w3.org/1999/xlink" width="128" height="128"><defs><style type="text/css"></style></defs><path d="M510.435876 67.959811c-245.428735 0-444.382996 198.954261-444.382996 444.373787 0 245.420549 198.954261 444.373787 444.382996 444.373787 245.410316 0 444.372763-198.953238 444.372763-444.373787C954.807616 266.914072 755.846192 67.959811 510.435876 67.959811zM510.435876 901.156184c-214.743876 0-388.831796-174.08792-388.831796-388.822586 0-214.743876 174.088944-388.831796 388.831796-388.831796 214.732619 0 388.822586 174.08792 388.822586 388.831796C899.257439 727.068264 725.167472 901.156184 510.435876 901.156184zM666.028561 329.355193 337.411171 329.355193c-15.117302 0-27.384697 15.60235-27.384697 34.844599 0 19.259646 12.267395 34.861996 27.384697 34.861996l328.618413 0c15.124466 0 27.375487-15.60235 27.375487-34.861996C693.404048 344.957543 681.15405 329.355193 666.028561 329.355193zM666.028561 486.191194 337.411171 486.191194c-15.117302 0-27.384697 15.601326-27.384697 34.852786 0 19.25146 12.267395 34.853809 27.384697 34.853809l328.618413 0c15.124466 0 27.375487-15.601326 27.375487-34.853809C693.404048 501.792521 681.15405 486.191194 666.028561 486.191194zM666.028561 625.604384 337.411171 625.604384c-15.117302 0-27.384697 15.60235-27.384697 34.845623 0 19.25146 12.267395 34.861996 27.384697 34.861996l328.618413 0c15.124466 0 27.375487-15.611559 27.375487-34.861996C693.404048 641.206734 681.15405 625.604384 666.028561 625.604384z" p-id="19215" fill="#fbfaf8"></path></svg>