<?xml version="1.0" standalone="no"?><!DOCTYPE svg PUBLIC "-//W3C//DTD SVG 1.1//EN" "http://www.w3.org/Graphics/SVG/1.1/DTD/svg11.dtd"><svg t="1542013811039" class="icon" style="" viewBox="0 0 1024 1024" version="1.1" xmlns="http://www.w3.org/2000/svg" p-id="8704" xmlns:xlink="http://www.w3.org/1999/xlink" width="128" height="128"><defs><style type="text/css"></style></defs><path d="M512 960a448 448 0 1 0 0-896 448 448 0 0 0 0 896z m0 64A512 512 0 1 1 512 0a512 512 0 0 1 0 1024zM320 576a64 64 0 1 0 0-128 64 64 0 0 0 0 128z m192 0a64 64 0 1 0 0-128 64 64 0 0 0 0 128z m192 0a64 64 0 1 0 0-128 64 64 0 0 0 0 128z" p-id="8705" fill="#fbfaf8"></path></svg>