<?xml version="1.0" standalone="no"?><!DOCTYPE svg PUBLIC "-//W3C//DTD SVG 1.1//EN" "http://www.w3.org/Graphics/SVG/1.1/DTD/svg11.dtd"><svg t="1543390628975" class="icon" style="" viewBox="0 0 1024 1024" version="1.1" xmlns="http://www.w3.org/2000/svg" p-id="2535" xmlns:xlink="http://www.w3.org/1999/xlink" width="64" height="64"><defs><style type="text/css"></style></defs><path d="M512 42.667008C254.733312 42.667008 42.665984 254.736384 42.665984 512s212.067328 469.331968 469.331968 469.331968c257.26464 0 469.334016-212.067328 469.334016-469.331968 0-257.26464-212.069376-469.334016-469.334016-469.334016M512 1024C228.692992 1024 0 795.307008 0 512 0 228.692992 228.692992 0 512 0c283.307008 0 512 228.692992 512 512 0 283.307008-228.692992 512-512 512" p-id="2536" fill="#fbfaf8"></path><path d="M384 341.332992h85.332992v341.332992H384zM554.667008 341.332992H640v341.332992h-85.332992z" p-id="2537" fill="#fbfaf8"></path></svg>