<?xml version="1.0" standalone="no"?><!DOCTYPE svg PUBLIC "-//W3C//DTD SVG 1.1//EN" "http://www.w3.org/Graphics/SVG/1.1/DTD/svg11.dtd"><svg t="1541559162554" class="icon" style="" viewBox="0 0 1024 1024" version="1.1" xmlns="http://www.w3.org/2000/svg" p-id="2773" xmlns:xlink="http://www.w3.org/1999/xlink" width="200" height="200"><defs><style type="text/css"></style></defs><path d="M451.84 13.4656C259.7888 36.79232 96.95232 169.69728 36.15744 353.03424c-78.70464 236.35968 26.85952 493.44512 248.84224 606.08512 143.27808 72.81664 310.58944 72.81664 453.85728 0 96.37888-49.01888 171.3152-123.94496 220.33408-220.33408 115.93728-228.34176 41.94304-505.46688-172.72832-647.08608-45.47584-29.93152-111.69792-57.96864-165.66272-69.9904-51.6096-11.30496-116.40832-14.60224-168.96-8.2432z m227.6352 257.09568c54.90688 16.0256 80.11776 76.11392 53.25824 126.54592-24.97536 47.12448-87.66464 60.55936-130.54976 27.81184l-12.4928-9.43104-69.51936 33.2288c-68.34176 32.75776-69.28384 33.46432-67.6352 39.35232 2.11968 8.00768 2.11968 42.41408-0.23552 48.78336-1.64864 4.23936 4.23936 7.53664 67.86048 38.17472L589.68064 608.256l12.4928-9.43104c62.67904-47.83104 152.9344 5.41696 140.45184 82.70848-9.43104 58.6752-70.46144 91.19744-123.9552 66.22208-30.16704-14.14144-48.0768-40.76544-49.7152-74.22976l-0.94208-19.32288-73.99424-35.584-73.99424-35.584-13.6704 7.54688c-12.72832 6.83008-14.848 7.30112-38.17472 7.30112-22.38464 0-26.15296-0.70656-38.17472-6.59456-66.21184-32.52224-65.98656-126.54592 0.23552-158.8224 23.79776-11.78624 63.3856-9.90208 82.944 4.00384l6.12352 4.47488 74.22976-35.81952 74.46528-35.584 0.94208-19.32288c0.70656-14.848 2.59072-22.14912 7.77216-32.99328 18.87232-38.42048 62.69952-58.44992 102.7584-46.66368z" p-id="2774" fill="#3d3662"></path></svg>