<?xml version="1.0" standalone="no"?><!DOCTYPE svg PUBLIC "-//W3C//DTD SVG 1.1//EN" "http://www.w3.org/Graphics/SVG/1.1/DTD/svg11.dtd"><svg t="1542013504235" class="icon" style="" viewBox="0 0 1024 1024" version="1.1" xmlns="http://www.w3.org/2000/svg" p-id="2064" xmlns:xlink="http://www.w3.org/1999/xlink" width="128" height="128"><defs><style type="text/css"></style></defs><path d="M811.375415 657.860465c-58.89701 0-111.415282 28.066445-145.009966 71.441861l-281.302326-157.129569c6.591362-18.923588 10.20598-39.335548 10.20598-60.385382 0-21.262458-3.614618-41.461794-10.418605-60.598006l281.089701-156.916944c33.38206 43.58804 86.112957 71.86711 145.222592 71.86711 100.784053 0 183.069767-82.07309 183.069767-183.069768S912.159468 0 811.162791 0s-183.069767 82.07309-183.069768 183.069767c0 21.262458 3.614618 41.674419 10.418605 60.598007l-280.877077 156.916944c-33.38206-43.800664-86.112957-71.86711-145.222591-71.86711-100.784053 0-183.069767 82.07309-183.069767 183.069767s82.285714 183.069767 183.282392 183.069768c59.109635 0 111.840532-28.27907 145.435216-72.079734l281.089701 157.129568c-6.803987 19.136213-10.631229 39.760797-10.63123 61.023256 0 100.784053 82.07309 183.069767 183.069768 183.069767s183.069767-82.07309 183.069767-183.069767-82.285714-183.069767-183.282392-183.069768z m0-600.239203c69.315615 0 125.66113 56.345515 125.66113 125.66113s-56.345515 125.66113-125.66113 125.66113-125.66113-56.345515-125.661129-125.66113 56.55814-125.66113 125.661129-125.66113zM212.624585 637.448505c-69.315615 0-125.66113-56.345515-125.66113-125.66113s56.345515-125.66113 125.66113-125.661129 125.66113 56.345515 125.661129 125.661129-56.55814 125.66113-125.661129 125.66113z m598.75083 328.930233c-69.315615 0-125.66113-56.345515-125.661129-125.66113s56.345515-125.66113 125.661129-125.66113 125.66113 56.345515 125.66113 125.66113-56.345515 125.66113-125.66113 125.66113z" p-id="2065" fill="#fbfaf8"></path></svg>