<?xml version="1.0" standalone="no"?><!DOCTYPE svg PUBLIC "-//W3C//DTD SVG 1.1//EN" "http://www.w3.org/Graphics/SVG/1.1/DTD/svg11.dtd"><svg t="1542016478942" class="icon" style="" viewBox="0 0 1024 1024" version="1.1" xmlns="http://www.w3.org/2000/svg" p-id="10270" xmlns:xlink="http://www.w3.org/1999/xlink" width="128" height="128"><defs><style type="text/css"></style></defs><path d="M707.92192 426.46528c-40.26368 0-76.17536-18.03776-101.4784-46.39232l-154.2656 91.14112c3.8144 13.12256 6.51264 26.74176 6.51264 41.14944 0 23.31648-5.91872 45.01504-15.49312 64.4864l148.28544 87.59808c24.61696-39.72096 67.42528-66.20672 116.43904-66.20672 76.45696 0 138.44992 64.1024 138.44992 143.15008 0 79.0528-61.99296 143.15008-138.44992 143.15008-76.48256 0-138.47552-64.09728-138.47552-143.15008 0-5.29408 0.96256-10.33216 1.50528-15.46752l-167.66464-99.0464 0.54784-1.11616c-23.28576 18.4064-52.05504 29.75232-83.61984 29.75232-76.45696 0-138.45504-64.09728-138.45504-143.15008 0-79.06304 61.99296-143.15008 138.45504-143.15008 40.26368 0 76.17024 18.05824 101.4784 46.39232l154.26048-91.136c-3.84-13.11232-6.50752-26.74176-6.50752-41.13408 0-79.0528 61.98784-143.16544 138.47552-143.16544 76.45696 0 138.44992 64.11264 138.44992 143.16544S784.37376 426.46528 707.92192 426.46528zM707.92192 827.27424c45.87008 0 83.072-38.45632 83.072-85.88288 0-47.45728-37.20192-85.87776-83.072-85.87776-45.9008 0-83.07712 38.4256-83.07712 85.87776C624.8448 788.81792 662.02112 827.27424 707.92192 827.27424zM320.21504 426.46528c-45.87008 0-83.08224 38.46656-83.08224 85.89312 0 47.4368 37.20704 85.87776 83.08224 85.87776 45.89568 0 83.072-38.44608 83.072-85.87776C403.28704 464.93184 366.1056 426.46528 320.21504 426.46528zM707.92192 197.43744c-45.9008 0-83.07712 38.4512-83.07712 85.89312 0 47.43168 37.17632 85.87776 83.07712 85.87776 45.87008 0 83.072-38.44608 83.072-85.87776C790.9888 235.88352 753.792 197.43744 707.92192 197.43744z" p-id="10271" fill="#fbfaf8"></path></svg>