<?xml version="1.0" standalone="no"?><!DOCTYPE svg PUBLIC "-//W3C//DTD SVG 1.1//EN" "http://www.w3.org/Graphics/SVG/1.1/DTD/svg11.dtd"><svg t="1543302149079" class="icon" style="" viewBox="0 0 1024 1024" version="1.1" xmlns="http://www.w3.org/2000/svg" p-id="1389" xmlns:xlink="http://www.w3.org/1999/xlink" width="64" height="64"><defs><style type="text/css"></style></defs><path d="M533.7 544.7l1.8-1.8 21.8-21.8L733 345.4c12.5-12.4 12.5-32.8 0.1-45.2-12.5-12.4-32.9-12.4-45.3 0L512 475.9 336.3 300.1c-12.5-12.4-32.9-12.4-45.3 0-12.4 12.5-12.4 32.9 0 45.3l175.7 175.7 21.5 21.5 2.2 2.2c5.7 5.2 13.2 8.3 21.5 8.3 8.4 0.1 16.1-3.1 21.8-8.4z" fill="#fbfaf8" p-id="1390"></path><path d="M533.7 724.8l1.8-1.8 21.8-21.8L733 525.5c12.5-12.4 12.5-32.8 0.1-45.2-12.5-12.4-32.9-12.4-45.3 0L512 656 336.3 480.2c-12.5-12.4-32.9-12.4-45.3 0-12.4 12.5-12.4 32.9 0 45.3l175.7 175.7 21.5 21.5 2.2 2.2c5.7 5.2 13.2 8.3 21.5 8.3 8.4 0.1 16.1-3.1 21.8-8.4z" fill="#fbfaf8" p-id="1391"></path></svg>